<?xml version="1.0" encoding="UTF-8"?>
<svg version="1.1" xmlns="http://www.w3.org/2000/svg" width="500" height="500" viewBox="0 0 500 500">
<path d="M0 0 C165 0 330 0 500 0 C500 165 500 330 500 500 C335 500 170 500 0 500 C0 335 0 170 0 0 Z " fill="#042D62" transform="translate(0,0)"/>
<path d="M0 0 C14.19 0 28.38 0 43 0 C43 9.24 43 18.48 43 28 C45.97 28.33 48.94 28.66 52 29 C66.82095652 32.7494928 80.89809769 39.69084438 93 49 C91.58503846 53.6156169 89.70520721 57.85576843 87.5234375 62.1484375 C87.19332672 62.80582916 86.86321594 63.46322083 86.52310181 64.14053345 C85.47750603 66.22061317 84.4263553 68.29782644 83.375 70.375 C82.6610881 71.79278238 81.9475427 73.21074938 81.234375 74.62890625 C79.49381428 78.08808677 77.74826918 81.54470937 76 85 C72.01405019 85 70.33029811 83.47799433 67 81.3125 C50.62262441 70.8875996 32.45857291 64.72062924 12.96875 68.72265625 C4.92404909 70.84556343 -1.30833082 73.08218025 -6.15234375 80.1328125 C-8.4290241 84.27119842 -8.56550175 87.91727515 -8.4375 92.5625 C-8.44458984 93.29146484 -8.45167969 94.02042969 -8.45898438 94.77148438 C-8.39191034 100.50373424 -7.11408135 104.63314805 -3.203125 109.01171875 C-2.55859375 109.56472656 -1.9140625 110.11773437 -1.25 110.6875 C-0.61578125 111.24824219 0.0184375 111.80898437 0.671875 112.38671875 C6.38337094 116.34451711 12.77343811 117.85428592 19.4375 119.4375 C20.31712402 119.652854 21.19674805 119.86820801 22.10302734 120.09008789 C26.14133293 121.07791957 30.18449967 122.04412159 34.23046875 123 C54.98089246 127.95490291 76.40044815 133.64604742 88.875 152.4375 C98.54070216 168.83507943 100.91252275 189.71239825 96.75 208.328125 C93.92529175 218.39114815 90.55774345 226.79915305 84 235 C83.37222656 235.8353125 82.74445313 236.670625 82.09765625 237.53125 C74.0531352 246.99891723 60.11749601 254.34857093 48 257 C46.35 257 44.7 257 43 257 C43 266.57 43 276.14 43 286 C28.81 286 14.62 286 0 286 C0 277.09 0 268.18 0 259 C-3.403125 258.690625 -3.403125 258.690625 -6.875 258.375 C-25.1000628 256.28759785 -48.05902083 248.47900675 -61 235 C-62.31152344 233.29370117 -62.31152344 233.29370117 -63 231 C-62.05747802 228.60293785 -61.09138796 226.640929 -59.80078125 224.44140625 C-59.44992966 223.81523911 -59.09907806 223.18907196 -58.7375946 222.54393005 C-57.61074165 220.54128901 -56.46206313 218.55217473 -55.3125 216.5625 C-54.55648826 215.2267336 -53.80191365 213.89015272 -53.04882812 212.55273438 C-50.09773998 207.32922096 -47.10411216 202.13458087 -44 197 C-40.58452186 197.59563526 -38.87920784 198.77693257 -36.3125 201.0625 C-19.01623201 214.88813527 4.00806073 219.53494946 25.6171875 217.69140625 C34.9859952 216.44590593 43.31008581 214.00107299 50 207 C54.73500931 200.09662194 55.0575008 192.12656017 54 184 C52.35636215 179.93807928 50.56804688 177.15938422 47.25 174.3125 C46.61578125 173.75175781 45.9815625 173.19101562 45.328125 172.61328125 C40.17755957 169.04418138 34.7227281 167.55605599 28.625 166.4375 C23.81757412 165.54180065 19.04134438 164.58277597 14.27197266 163.5065918 C12.08861165 163.01975813 9.90151237 162.55859591 7.7109375 162.10546875 C-11.43501543 158.09370697 -29.31045535 153.0874062 -42 137 C-43.65285083 134.44708867 -45.10655382 131.82727533 -46.5 129.125 C-46.82637451 128.50181885 -47.15274902 127.8786377 -47.48901367 127.23657227 C-52.23987646 117.31122704 -52.3432213 106.30160934 -52.3125 95.5 C-52.32861328 94.36691406 -52.34472656 93.23382813 -52.36132812 92.06640625 C-52.37042646 76.18070584 -47.61816364 62.55001615 -38 50 C-37.38382813 49.17113281 -36.76765625 48.34226563 -36.1328125 47.48828125 C-26.89846347 36.71487405 -14.32523889 31.63415606 -1 28 C-0.67 18.76 -0.34 9.52 0 0 Z " fill="#F0F3F6" transform="translate(233,105)"/>
<path d="M0 0 C165 0 330 0 500 0 C500 165 500 330 500 500 C335 500 170 500 0 500 C0 335 0 170 0 0 Z M7.0625 17.5 C3.24376611 22.12876835 2.70891478 25.59554903 2.74552441 31.51886559 C2.74231793 32.28313992 2.73911145 33.04741425 2.73580781 33.8348484 C2.72746799 36.41075676 2.73344595 38.98643501 2.73930359 41.56234741 C2.73628472 43.42181001 2.73239657 45.28127136 2.72771102 47.1407305 C2.71738814 52.26224047 2.71962372 57.38368077 2.72389162 62.50519657 C2.72635109 68.02404609 2.71735438 73.54287849 2.70985413 79.0617218 C2.69708327 89.87838512 2.69531641 100.69502364 2.69765439 111.51169322 C2.69943508 120.30111927 2.69769326 129.09053778 2.69342995 137.87996292 C2.69283476 139.12937654 2.69223957 140.37879017 2.69162634 141.66606481 C2.69041463 144.20399129 2.6892005 146.74191776 2.68798397 149.27984424 C2.6801928 166.32887876 2.67628039 183.37791078 2.68030071 200.42694664 C2.68045709 201.09390124 2.68061346 201.76085585 2.68077458 202.44802119 C2.68158038 205.82853384 2.68242615 209.20904649 2.68328788 212.58955912 C2.68345897 213.26095837 2.68363006 213.93235761 2.68380633 214.62410229 C2.68415298 215.98183539 2.68450151 217.33956848 2.68485192 218.69730157 C2.69020937 239.82458474 2.68227898 260.95182618 2.66381836 282.07910156 C2.64310928 305.80750044 2.63240468 329.53587708 2.63639385 353.26428759 C2.63830897 365.83104651 2.63578811 378.3977674 2.62167931 390.9645195 C2.60979003 401.66290666 2.60833297 412.3612324 2.62046947 423.05962037 C2.62637549 428.52054998 2.62741016 433.9813671 2.61546707 439.44228935 C2.60466675 444.43865792 2.60764152 449.43481929 2.62172876 454.43117793 C2.6243919 456.24138183 2.62195883 458.05160166 2.61399289 459.86178999 C2.60393225 462.31792941 2.61226959 464.77334225 2.62526989 467.22945213 C2.61430587 468.28943362 2.61430587 468.28943362 2.60312036 469.37082887 C2.66850281 475.30969058 4.4851102 479.13884968 8.1875 483.6875 C13.86129552 488.35262076 19.91715508 489.44845491 27.17446804 489.38031673 C28.35431258 489.38730661 28.35431258 489.38730661 29.55799237 489.3944377 C32.18576034 489.40636004 34.81300862 489.39700306 37.44078064 489.38768005 C39.34693181 489.39185417 41.25308049 489.39733212 43.15922457 489.40399987 C48.3913509 489.4184628 53.62331982 489.41420706 58.8554548 489.40683305 C64.50040759 489.40210583 70.14532611 489.41460727 75.79026794 489.42485046 C86.84669696 489.44205227 97.90306919 489.44287563 108.95950811 489.43763756 C117.94523074 489.43359736 126.93093658 489.43503764 135.9166584 489.44038582 C137.19519287 489.44113424 138.47372734 489.44188266 139.79100527 489.44265376 C142.38827542 489.44418523 144.98554557 489.44572357 147.58281571 489.44726873 C165.02278098 489.45709835 182.4627353 489.46126031 199.90270138 489.45364285 C200.58452772 489.45334567 201.26635407 489.4530485 201.96884182 489.45274232 C207.50562191 489.45029343 213.04240193 489.44768182 218.57918194 489.44505819 C240.17708506 489.43495531 261.77491045 489.4433125 283.37280273 489.46655273 C307.64366313 489.492627 331.9144631 489.50542337 356.18534094 489.49836498 C369.03439692 489.49486976 381.88338905 489.49712489 394.73243523 489.51461601 C405.67000605 489.52932033 416.60746807 489.52999651 427.54503673 489.5125451 C433.1258848 489.50401838 438.70653835 489.50192649 444.2873764 489.51719666 C449.39667348 489.53100361 454.50560864 489.52633189 459.61488456 489.50695742 C461.46270613 489.50318486 463.31055641 489.50615541 465.15835249 489.51656907 C475.72579137 489.57188703 484.46385964 489.5938186 492.9375 482.5625 C496.81722164 477.74223978 497.29267936 473.40254977 497.26006222 467.36367321 C497.26386789 466.59884423 497.26767356 465.83401525 497.27159455 465.04600963 C497.28192958 462.47422357 497.27800066 459.90265745 497.27415466 457.33085632 C497.27860602 455.47195543 497.28391973 453.61305643 497.29002339 451.75416023 C497.30422592 446.63877752 497.30586625 441.5234555 497.30542648 436.4080559 C497.30707268 430.89395233 497.32013544 425.37987392 497.33161926 419.86578369 C497.35448278 407.80601023 497.36239118 395.74625436 497.36744571 383.68646216 C497.37070085 376.15865106 497.37722218 368.63084509 497.3844471 361.10303688 C497.404014 340.26687542 497.42049924 319.4307174 497.42332363 298.59454632 C497.42346472 297.59488909 497.42346472 297.59488909 497.42360866 296.57503677 C497.42398715 293.87424368 497.42435114 291.17345059 497.42471164 288.4726575 C497.42498336 286.43986086 497.42526004 284.40706422 497.42553711 282.37426758 C497.42562513 281.70255403 497.42571315 281.03084048 497.42580384 280.33877197 C497.42870952 259.23142203 497.45080781 238.12416365 497.48706055 217.0168457 C497.5277845 193.30563335 497.55146258 169.59447382 497.55178314 145.88321906 C497.5523683 133.32755511 497.56089801 120.77200902 497.58978081 108.21637535 C497.61425758 97.52682649 497.62160253 86.83743848 497.60653328 76.14786919 C497.59934952 70.69268284 497.60028517 65.23781434 497.62294388 59.78266335 C497.64348649 54.78919655 497.64097753 49.79629296 497.62006903 44.80283258 C497.61656513 42.9959834 497.6215221 41.18909397 497.63577347 39.3822976 C497.92811796 26.77574429 497.92811796 26.77574429 492 16 C489.99465793 14.33108023 489.99465793 14.33108023 487.875 13.5625 C487.21242188 13.27503906 486.54984375 12.98757813 485.8671875 12.69140625 C481.59287545 11.1086589 477.94840995 10.85662722 473.4407711 10.86577892 C472.26958039 10.86225058 472.26958039 10.86225058 471.07472926 10.85865095 C468.43663638 10.85195 465.79859263 10.85241951 463.16049194 10.85282898 C461.25865848 10.84953103 459.35682571 10.84580561 457.45499384 10.8416875 C452.21161926 10.83165145 446.96825613 10.82794813 441.7248733 10.82529819 C436.07643441 10.82139988 430.42800463 10.81182121 424.77957153 10.80308533 C411.12993797 10.78330736 397.48030365 10.77325295 383.83065933 10.76435754 C377.40634833 10.75997676 370.98203816 10.7546094 364.55772781 10.74936867 C343.20780517 10.73235495 321.85788372 10.71783528 300.50795555 10.71061993 C299.12697881 10.71014517 297.74600206 10.70966928 296.36502532 10.70919226 C295.33775921 10.7088377 295.33775921 10.7088377 294.28974025 10.70847597 C290.81995053 10.70727477 287.35016081 10.70605932 283.88037109 10.70483398 C282.84748334 10.70447376 282.84748334 10.70447376 281.79372917 10.70410626 C259.46882493 10.69621364 237.14397383 10.67278311 214.81909279 10.64027804 C191.21872724 10.60597858 167.61840419 10.5862698 144.01801074 10.58297569 C131.15210376 10.58080872 118.28627486 10.5720328 105.42039108 10.54651451 C94.46441113 10.52483484 83.50852823 10.51674364 72.55252926 10.52648129 C66.9615819 10.53103391 61.37083489 10.52908377 55.77991486 10.50971985 C50.66117921 10.49214428 45.54279089 10.49304041 40.42405184 10.50861714 C38.57271083 10.51100174 36.72134612 10.5066257 34.87004142 10.49478849 C19.88480924 10.38755015 19.88480924 10.38755015 7.0625 17.5 Z " fill="#FBFBFC" transform="translate(0,0)"/>
</svg>
